<?xml version="1.0" encoding="UTF-8"?>
<svg id="logo-full-dark" xmlns="http://www.w3.org/2000/svg" viewBox="-5 -8 185 168" width="230" height="215" data-om-id="d491b344:13">
          <g fill="#111" data-om-id="d491b344:14">
            <path d="m112.4 53.2c1.7-1.8 7.5-5.7 8.3-16.8v-4.8c-0.4-3.7-1.6-7.6-2.8-9.9-2-3.9-4.9-6.8-8.1-9.2-3.2-2.3-7.7-4.4-14-5-1 0-2.7-0.2-3.7-0.2h-28.7v27.7l-35.7 35.6v33.7h30.9v-16.1h-14.3v-11.2l35.4-36.2v-17.6h13.3c6.6 0.1 10.7 5.2 10.7 11.2 0 5.5-3.1 10.8-11 11.3h-11.2l-15.6 17h29c3 0.1 6.5 0.8 9.5 3.5 2.3 2.1 3.4 5.4 3.4 9.3 0 5.7-3.3 12.4-13.4 12.6h-14.7v-20.4h-16.3v36.6h31.6c5.6 0 12.3-1.2 17.4-4.1 3.7-2 9.2-6 11.7-15.2 0.6-1.9 1-4.6 1-8.1 0-3.1-0.3-6.3-1.1-8.6-1.2-3.6-3.4-8.4-9.1-13.2-0.8-0.6-1.6-1.3-2.5-1.9z" data-om-id="d491b344:15"/>
            <path d="m58.6 7.3h-30.9v33.5l11.2 11.2 11.6-11.6-6.2-5.7v-11.5h14.3z" data-om-id="d491b344:16"/>
          </g>
          <defs data-om-id="d491b344:17">
    <clipPath id="bclip-fd" data-om-id="d491b344:18">
      <circle cx="119" cy="10" r="17" data-om-id="d491b344:19"/>
    </clipPath>
  </defs>
  <circle cx="119" cy="10" r="17" fill="#111" data-om-id="d491b344:20"/>
  <circle cx="119" cy="10" r="14.5" fill="none" stroke="white" stroke-width="1.5" data-om-id="d491b344:21"/>
  <g transform="translate(105.99,-3.01) scale(0.85)" fill="white" clip-path="url(#bclip-fd)" data-om-id="d491b344:22">
    <path d="M24.552,24.691c-0.082-0.322-0.13-0.729,0.008-1.039c0.045-0.103,0.184-0.414,0.874-0.604l1.032-0.284l-0.446-0.975c-1.087-2.369-0.084-6.596,0.063-7.001c-0.009,0.025-0.019,0.043-0.024,0.055c0.021-0.042,1.771-4.52-3.737-9.172c-2.363-1.996-3.257-2.439-3.848-2.732c-0.485-0.24-0.706-0.35-1.968-1.839L15.578,0l-0.595,1.312c-0.777,1.713-0.796,2.938-0.617,3.736c-0.622,0.231-1.484,0.582-2.391,1.042c-2.358,1.198-3.848,2.538-4.433,3.986c-1.385,1.884-3.189,2.732-3.204,2.74L4.271,12.85c-0.298,0.166-0.632,0.517-0.679,1.004c-0.024,0.247,0.014,0.727,0.531,1.162l0.062,0.048c0.016,0.011,1.604,1.14,2.434,2.384c0.376,0.562,0.923,0.874,1.541,0.874c0.497,0,0.885-0.207,1.012-0.284c0.717-0.41,2.574-1.343,4.073-1.661c-3.473,3.034-4.316,6.193-4.412,8.314H7.021v5.91h19.995v-5.91H24.552z M16.008,16.538l0.922-0.637l-0.812-0.773c-0.476-0.453-1.138-0.682-1.97-0.682c-2.362,0-5.754,1.936-5.898,2.018l0.004-0.009L8.22,16.48c-0.013,0.006-0.028,0.012-0.04,0.015c-0.011-0.011-0.026-0.029-0.045-0.058c-0.658-0.987-1.639-1.868-2.276-2.385c0.816-0.504,2.135-1.474,3.231-3.007l0.072-0.101l0.043-0.116c0.792-2.162,5.063-3.883,6.641-4.364l1.652-0.412l-1.231-1.066c-0.058-0.098-0.287-0.563-0.095-1.524c0.65,0.671,0.988,0.859,1.494,1.11c0.513,0.254,1.287,0.638,3.481,2.491c4.321,3.651,3.272,6.98,3.261,7.013c0.008-0.022,0.017-0.038,0.021-0.049c-0.146,0.294-1.304,4.474-0.391,7.638c-0.638,0.371-0.971,0.855-1.146,1.25c-0.269,0.605-0.28,1.239-0.2,1.775H10.653C10.854,20.703,14.039,17.9,16.008,16.538z M25.191,28.779H8.843v-2.264h0.043h16.305V28.779z" data-om-id="d491b344:23"/>
  </g>
          <g fill="#111" data-om-id="d491b344:24">
    <path d="m2.8 123h7.8c2.7 0 5.5 1.6 5.5 5.1 0 1.8-0.9 3.2-2 4 1.6 0.7 2.7 2.5 2.7 4.6 0 3.2-2.9 5.6-5.9 5.6h-8.1v-19.3zm7.2 7.8c1.3 0 2.3-1 2.3-2.2 0-1.1-1-2.1-2.3-2.1h-3.6v4.3h3.6zm0.6 8.1c1.2 0 2.3-1.1 2.3-2.3 0-1.4-1-2.4-2.5-2.4h-4v4.7h4.2z" data-om-id="d491b344:25"/>
    <path d="m19.5 122.7h3.9l-0.1 19.7h-3.8v-19.7z" data-om-id="d491b344:26"/>
    <path d="m26.1 128.6h4v7.9c0 1.4 1.1 2.5 2.4 2.5 1.9 0 3.3-1.1 3.4-3.2v-7.2h3.8v13.8h-3.8l-0.1-1.8c-1 1.1-2.1 2.1-4.5 2.1-3 0-5.2-2.3-5.2-5.4v-8.7z" data-om-id="d491b344:27"/>
    <path d="m42.7 128.6h3.8v1.8c1-1.3 2.4-2.1 4.2-2.1 3.6 0 5.4 2.1 5.4 5.7v8.4h-3.8v-8c0-1.3-1.1-2.5-2.6-2.5s-3.1 1.4-3.1 3.5v7h-4l0.1-16v2.2z" data-om-id="d491b344:28"/>
    <path d="m58.2 135.7c0-4.2 2.9-7.4 6.8-7.4 1.5 0 3.2 0.6 4.2 2l-0.1-7.6h4v19.7h-3.8l-0.1-1.7c-0.9 1.3-2.6 2-4.4 2-3.7 0-6.6-2.9-6.6-7zm7.6 3.6c1.9 0 3.5-1.7 3.5-3.6s-1.4-3.9-3.5-3.9c-2 0-3.6 1.6-3.6 3.9 0 1.9 1.5 3.6 3.6 3.6z" data-om-id="d491b344:29"/>
    <path d="m75.4 135.9c0-4.5 3.1-7.6 6.9-7.6 4 0 7.3 2.4 7.3 7.6v0.7h-10.5c0.3 1.7 1.8 2.8 3.6 2.8 1.4 0 2.6-0.5 3.5-1.7l3.3 1.3c-1.2 2.1-3.6 3.7-6.8 3.7-4.2 0-7.3-2.5-7.3-6.8zm10.3-2c-0.3-1.4-1.4-2.5-3.3-2.5-1.5 0-2.8 1-3.3 2.5h6.6z" data-om-id="d491b344:30"/>
    <path d="m92.1 128.6h3.7v2.1c0.8-1.4 2.1-2.4 3.6-2.4 0.4 0 1.1 0 1.7 0.3v3.8c-0.7-0.4-1.5-0.7-2.2-0.7-1.7 0-3 1.6-3 3.6v7.1h-3.8v-13.8z" data-om-id="d491b344:31"/>
    <path d="m103.4 123h3.9v15.9h8.6v3.5h-12.5v-19.4z" data-om-id="d491b344:32"/>
    <path d="m117.4 138.6c0-3.1 2.5-4.6 6.8-4.6h2.7c-0.1-1.6-1.2-2.6-2.9-2.6-1.2 0-2.4 0.6-3.3 2l-3.1-2c2-2.3 3.4-3.1 6.4-3.1 3.9 0 7 1.9 7 5.7l0.1 8.4h-4.2v-1.5c-0.8 1.2-2.2 1.9-4.5 1.9-3 0-5-1.4-5-4.2zm6.1 1.3c1.9 0 3.3-1.6 3.4-3.2h-2.5c-1.9 0-3.1 0.9-3.1 1.9 0 0.7 0.8 1.3 2.2 1.3z" data-om-id="d491b344:33"/>
    <path d="m137.5 140.9-0.1 1.5h-3.6l0.1-19.7h3.7v7.5c1-1.2 2.6-2 3.9-1.9 3.9-0.1 6.4 3.1 6.4 7.4 0 3.9-2.9 7.1-6.4 7.1-1.6 0-3.1-0.4-4-1.9zm3.2-1.6c1.7 0 3.4-1.7 3.4-3.6 0-2.3-1.5-4-3.4-4-2 0-3.4 1.8-3.4 4 0.1 1.9 1.4 3.6 3.4 3.6z" data-om-id="d491b344:34"/>
          </g>
        </svg>