<?xml version="1.0" encoding="UTF-8"?>
<svg id="logo-horiz-light" xmlns="http://www.w3.org/2000/svg" viewBox="-2 -12 350 78" width="350" height="78" data-om-id="53a3e181:72">
          <g transform="scale(0.46)" fill="white" data-om-id="53a3e181:73"><path d="m112.4 53.2c1.7-1.8 7.5-5.7 8.3-16.8v-4.8c-0.4-3.7-1.6-7.6-2.8-9.9-2-3.9-4.9-6.8-8.1-9.2-3.2-2.3-7.7-4.4-14-5-1 0-2.7-0.2-3.7-0.2h-28.7v27.7l-35.7 35.6v33.7h30.9v-16.1h-14.3v-11.2l35.4-36.2v-17.6h13.3c6.6 0.1 10.7 5.2 10.7 11.2 0 5.5-3.1 10.8-11 11.3h-11.2l-15.6 17h29c3 0.1 6.5 0.8 9.5 3.5 2.3 2.1 3.4 5.4 3.4 9.3 0 5.7-3.3 12.4-13.4 12.6h-14.7v-20.4h-16.3v36.6h31.6c5.6 0 12.3-1.2 17.4-4.1 3.7-2 9.2-6 11.7-15.2 0.6-1.9 1-4.6 1-8.1 0-3.1-0.3-6.3-1.1-8.6-1.2-3.6-3.4-8.4-9.1-13.2-0.8-0.6-1.6-1.3-2.5-1.9z" data-om-id="53a3e181:74"/><path d="m58.6 7.3h-30.9v33.5l11.2 11.2 11.6-11.6-6.2-5.7v-11.5h14.3z" data-om-id="53a3e181:75"/></g>
          <circle cx="56" cy="2" r="9" fill="white" data-om-id="53a3e181:76"/>
  <circle cx="56" cy="2" r="7.5" fill="none" stroke="#111" stroke-width="0.8" data-om-id="53a3e181:77"/>
  <svg x="47" y="-7" width="18" height="18" viewBox="0 0 30.602 30.602" data-om-id="53a3e181:78">
    <path fill="#111" d="M24.552,24.691c-0.082-0.322-0.13-0.729,0.008-1.039c0.045-0.103,0.184-0.414,0.874-0.604l1.032-0.284l-0.446-0.975c-1.087-2.369-0.084-6.596,0.063-7.001c-0.009,0.025-0.019,0.043-0.024,0.055c0.021-0.042,1.771-4.52-3.737-9.172c-2.363-1.996-3.257-2.439-3.848-2.732c-0.485-0.24-0.706-0.35-1.968-1.839L15.578,0l-0.595,1.312c-0.777,1.713-0.796,2.938-0.617,3.736c-0.622,0.231-1.484,0.582-2.391,1.042c-2.358,1.198-3.848,2.538-4.433,3.986c-1.385,1.884-3.189,2.732-3.204,2.74L4.271,12.85c-0.298,0.166-0.632,0.517-0.679,1.004c-0.024,0.247,0.014,0.727,0.531,1.162l0.062,0.048c0.016,0.011,1.604,1.14,2.434,2.384c0.376,0.562,0.923,0.874,1.541,0.874c0.497,0,0.885-0.207,1.012-0.284c0.717-0.41,2.574-1.343,4.073-1.661c-3.473,3.034-4.316,6.193-4.412,8.314H7.021v5.91h19.995v-5.91H24.552z M16.008,16.538l0.922-0.637l-0.812-0.773c-0.476-0.453-1.138-0.682-1.97-0.682c-2.362,0-5.754,1.936-5.898,2.018l0.004-0.009L8.22,16.48c-0.013,0.006-0.028,0.012-0.04,0.015c-0.011-0.011-0.026-0.029-0.045-0.058c-0.658-0.987-1.639-1.868-2.276-2.385c0.816-0.504,2.135-1.474,3.231-3.007l0.072-0.101l0.043-0.116c0.792-2.162,5.063-3.883,6.641-4.364l1.652-0.412l-1.231-1.066c-0.058-0.098-0.287-0.563-0.095-1.524c0.65,0.671,0.988,0.859,1.494,1.11c0.513,0.254,1.287,0.638,3.481,2.491c4.321,3.651,3.272,6.98,3.261,7.013c0.008-0.022,0.017-0.038,0.021-0.049c-0.146,0.294-1.304,4.474-0.391,7.638c-0.638,0.371-0.971,0.855-1.146,1.25c-0.269,0.605-0.28,1.239-0.2,1.775H10.653C10.854,20.703,14.039,17.9,16.008,16.538z M25.191,28.779H8.843v-2.264h0.043h16.305V28.779z" data-om-id="53a3e181:79"/>
  </svg>
          <line x1="80" y1="6" x2="80" y2="62" stroke="#444" stroke-width="1" data-om-id="53a3e181:80"/>
          <text x="94" y="48" font-family="'Space Mono', monospace" font-size="28" font-weight="700" fill="white" letter-spacing="-0.5" data-om-id="53a3e181:81">blunderlab</text>
        </svg>